<?xml version="1.0" encoding="iso-8859-1"?>
<!-- Generator: Adobe Illustrator 19.0.0, SVG Export Plug-In . SVG Version: 6.00 Build 0)  -->
<svg version="1.1" id="Capa_1" xmlns="http://www.w3.org/2000/svg" xmlns:xlink="http://www.w3.org/1999/xlink" x="0px" y="0px"
	 viewBox="0 0 466.406 466.406" style="enable-background:new 0 0 466.406 466.406;" xml:space="preserve">
<g>
	<g>
		<polygon style="fill:#87E680;" points="455.727,110.949 378.927,182.002 268.168,182.002 268.168,178.867 343.4,108.859 
			345.49,110.949 		"/>
		<polygon style="fill:#3BB54A;" points="350.715,102.067 343.4,108.859 268.168,178.867 268.168,182.002 268.168,359.112 
			268.168,364.336 115.612,364.336 115.612,359.112 115.612,182.002 115.612,178.867 187.188,112.516 198.159,102.067 		"/>
		<polygon style="fill:#87E680;" points="185.621,110.949 187.188,112.516 115.612,178.867 115.612,182.002 10.6,182.002 
			87.4,110.949 		"/>
	</g>
	<g>
		<path style="fill:#083863;" d="M464.608,308.434c-3.297-4.723-9.686-6.092-14.629-3.135l-74.188,48.065h-95.608v-36.571h98.743
			c2.09,0,4.18-2.09,6.269-3.135l76.8-56.424c4.557-3.047,5.781-9.212,2.734-13.769c-0.199-0.298-0.414-0.585-0.644-0.859
			c-3.397-4.303-9.639-5.037-13.942-1.64c-0.238,0.188-0.467,0.386-0.686,0.595l-73.665,54.335h-95.608V254.1h98.743
			c2.277-0.326,4.435-1.225,6.269-2.612l76.8-61.127c4.617-3.462,5.552-10.012,2.09-14.629c-3.62-4.449-10.149-5.148-14.629-1.567
			l-74.188,59.037h-95.086v-41.796h98.743c2.6,0.114,5.167-0.62,7.314-2.09l76.8-71.053c3.124-2.497,4.194-6.775,2.612-10.449
			c-2.014-3.521-5.884-5.557-9.927-5.224h-94.563c-0.522-5.224-0.522-2.09-0.522-3.135c-1.71-4.079-5.524-6.889-9.927-7.314H198.159
			c-2.818,0.231-5.439,1.541-7.314,3.657l-6.269,6.792H87.4c-2.545-0.308-5.119,0.244-7.314,1.567l-76.8,70.531
			c-3.065,2.759-4.105,7.127-2.612,10.971c1.868,3.723,5.768,5.981,9.927,5.747h91.951v41.796H10.6
			c-5.771,0-10.449,4.678-10.449,10.449c0,5.771,4.678,10.449,10.449,10.449h91.951v41.796H10.6
			c-5.771,0-10.449,4.678-10.449,10.449c0,5.771,4.678,10.449,10.449,10.449h91.951v36.571H10.6
			c-5.771,0-10.449,4.678-10.449,10.449c0,5.771,4.678,10.449,10.449,10.449h368.327c2.027,0.046,4.024-0.498,5.747-1.567
			l76.8-50.155C466.125,319.435,467.507,313.218,464.608,308.434z M374.747,170.508h-83.592l54.335-48.588v1.567h83.592
			L374.747,170.508z M91.58,123.487h70.531l-53.812,48.065v-1.045H37.245L91.58,123.487z M123.449,183.569l78.89-70.531H324.07
			l-62.171,58.514c-1.947,1.908-2.91,4.604-2.612,7.314v174.498H123.449V183.569z"/>
		<path style="fill:#083863;" d="M233.686,227.977h-13.061c-1.045,0-2.612-5.224-5.224-10.449h18.286
			c5.771,0,10.449-4.678,10.449-10.449s-4.678-10.449-10.449-10.449h-77.845c-5.771,0-10.449,4.678-10.449,10.449
			s4.678,10.449,10.449,10.449h22.465c8,0.311,15.455,4.134,20.376,10.449h-42.841c-5.771,0-10.449,4.678-10.449,10.449
			s4.678,10.449,10.449,10.449h42.841c-0.305,2.917-1.822,5.571-4.18,7.314c-4.275,4.568-9.996,7.521-16.196,8.359h-22.465
			c-4.323-0.301-8.341,2.237-9.927,6.269c-1.662,3.831-0.598,8.3,2.612,10.971l55.902,53.29c2.1,1.623,4.661,2.538,7.314,2.612
			c2.756-0.039,5.385-1.166,7.314-3.135c3.904-4.378,3.674-11.052-0.522-15.151l-36.571-35.004
			c10.384-1.15,20.017-5.966,27.167-13.584c6.34-5.698,10.419-13.487,11.494-21.943h13.061c5.771,0,10.449-4.678,10.449-10.449
			S239.457,227.977,233.686,227.977z"/>
	</g>
</g>
<g>
</g>
<g>
</g>
<g>
</g>
<g>
</g>
<g>
</g>
<g>
</g>
<g>
</g>
<g>
</g>
<g>
</g>
<g>
</g>
<g>
</g>
<g>
</g>
<g>
</g>
<g>
</g>
<g>
</g>
</svg>
